<?xml version="1.0" encoding="UTF-8" standalone="no"?>
<!DOCTYPE svg PUBLIC "-//W3C//DTD SVG 1.1//EN"
 "http://www.w3.org/Graphics/SVG/1.1/DTD/svg11.dtd">
<!-- Generated by graphviz version 8.0.5 (20230430.1635)
 -->
<!-- Pages: 1 -->
<svg width="798pt" height="476pt"
 viewBox="0.00 0.00 798.24 476.00" xmlns="http://www.w3.org/2000/svg" xmlns:xlink="http://www.w3.org/1999/xlink">
<g id="graph0" class="graph" transform="scale(1 1) rotate(0) translate(4 472)">
<polygon fill="white" stroke="none" points="-4,4 -4,-472 794.24,-472 794.24,4 -4,4"/>
<!-- [root] aws_instance.public_instance (expand) -->
<g id="node1" class="node">
<title>[root] aws_instance.public_instance (expand)</title>
<polygon fill="none" stroke="black" points="513.41,-324 336.91,-324 336.91,-288 513.41,-288 513.41,-324"/>
<text text-anchor="middle" x="425.16" y="-300.95" font-family="Times,serif" font-size="14.00">aws_instance.public_instance</text>
</g>
<!-- [root] aws_subnet.public_subnet (expand) -->
<g id="node3" class="node">
<title>[root] aws_subnet.public_subnet (expand)</title>
<polygon fill="none" stroke="black" points="319.41,-252 160.91,-252 160.91,-216 319.41,-216 319.41,-252"/>
<text text-anchor="middle" x="240.16" y="-228.95" font-family="Times,serif" font-size="14.00">aws_subnet.public_subnet</text>
</g>
<!-- [root] aws_instance.public_instance (expand)&#45;&gt;[root] aws_subnet.public_subnet (expand) -->
<g id="edge1" class="edge">
<title>[root] aws_instance.public_instance (expand)&#45;&gt;[root] aws_subnet.public_subnet (expand)</title>
<path fill="none" stroke="black" d="M378.96,-287.52C353.92,-278.04 322.78,-266.26 296.35,-256.26"/>
<polygon fill="black" stroke="black" points="297.69,-252.65 287.1,-252.38 295.21,-259.19 297.69,-252.65"/>
</g>
<!-- [root] data.aws_key_pair.key (expand) -->
<g id="node5" class="node">
<title>[root] data.aws_key_pair.key (expand)</title>
<polygon fill="none" stroke="black" points="467.04,-180 327.29,-180 327.29,-144 467.04,-144 467.04,-180"/>
<text text-anchor="middle" x="397.16" y="-156.95" font-family="Times,serif" font-size="14.00">data.aws_key_pair.key</text>
</g>
<!-- [root] aws_instance.public_instance (expand)&#45;&gt;[root] data.aws_key_pair.key (expand) -->
<g id="edge2" class="edge">
<title>[root] aws_instance.public_instance (expand)&#45;&gt;[root] data.aws_key_pair.key (expand)</title>
<path fill="none" stroke="black" d="M421.73,-287.59C416.96,-263.4 408.28,-219.36 402.61,-190.65"/>
<polygon fill="black" stroke="black" points="405.9,-190.24 400.54,-181.11 399.04,-191.6 405.9,-190.24"/>
</g>
<!-- [root] var.ec2 -->
<g id="node7" class="node">
<title>[root] var.ec2</title>
<polygon fill="none" stroke="black" points="474.66,-252 425.66,-252 425.66,-216 480.66,-216 480.66,-246 474.66,-252"/>
<polyline fill="none" stroke="black" points="474.66,-252 474.66,-246"/>
<polyline fill="none" stroke="black" points="480.66,-246 474.66,-246"/>
<text text-anchor="middle" x="453.16" y="-228.95" font-family="Times,serif" font-size="14.00">var.ec2</text>
</g>
<!-- [root] aws_instance.public_instance (expand)&#45;&gt;[root] var.ec2 -->
<g id="edge3" class="edge">
<title>[root] aws_instance.public_instance (expand)&#45;&gt;[root] var.ec2</title>
<path fill="none" stroke="black" d="M432.08,-287.7C435.17,-279.98 438.88,-270.71 442.32,-262.11"/>
<polygon fill="black" stroke="black" points="445.86,-263.69 446.32,-253.1 439.36,-261.09 445.86,-263.69"/>
</g>
<!-- [root] aws_subnet.private_subnet (expand) -->
<g id="node2" class="node">
<title>[root] aws_subnet.private_subnet (expand)</title>
<polygon fill="none" stroke="black" points="319.29,-324 157.04,-324 157.04,-288 319.29,-288 319.29,-324"/>
<text text-anchor="middle" x="238.16" y="-300.95" font-family="Times,serif" font-size="14.00">aws_subnet.private_subnet</text>
</g>
<!-- [root] aws_subnet.private_subnet (expand)&#45;&gt;[root] aws_subnet.public_subnet (expand) -->
<g id="edge4" class="edge">
<title>[root] aws_subnet.private_subnet (expand)&#45;&gt;[root] aws_subnet.public_subnet (expand)</title>
<path fill="none" stroke="black" d="M238.66,-287.7C238.87,-280.24 239.12,-271.32 239.36,-262.97"/>
<polygon fill="black" stroke="black" points="242.89,-263.2 239.67,-253.1 235.89,-263 242.89,-263.2"/>
</g>
<!-- [root] aws_vpc.vpc&#45;lange&#45;virginia (expand) -->
<g id="node4" class="node">
<title>[root] aws_vpc.vpc&#45;lange&#45;virginia (expand)</title>
<polygon fill="none" stroke="black" points="213.54,-180 46.79,-180 46.79,-144 213.54,-144 213.54,-180"/>
<text text-anchor="middle" x="130.16" y="-156.95" font-family="Times,serif" font-size="14.00">aws_vpc.vpc&#45;lange&#45;virginia</text>
</g>
<!-- [root] aws_subnet.public_subnet (expand)&#45;&gt;[root] aws_vpc.vpc&#45;lange&#45;virginia (expand) -->
<g id="edge5" class="edge">
<title>[root] aws_subnet.public_subnet (expand)&#45;&gt;[root] aws_vpc.vpc&#45;lange&#45;virginia (expand)</title>
<path fill="none" stroke="black" d="M212.69,-215.52C198.67,-206.6 181.44,-195.63 166.35,-186.03"/>
<polygon fill="black" stroke="black" points="168.6,-182.68 158.29,-180.26 164.84,-188.58 168.6,-182.68"/>
</g>
<!-- [root] var.subnets -->
<g id="node8" class="node">
<title>[root] var.subnets</title>
<polygon fill="none" stroke="black" points="302.54,-180 231.79,-180 231.79,-144 308.54,-144 308.54,-174 302.54,-180"/>
<polyline fill="none" stroke="black" points="302.54,-180 302.54,-174"/>
<polyline fill="none" stroke="black" points="308.54,-174 302.54,-174"/>
<text text-anchor="middle" x="270.16" y="-156.95" font-family="Times,serif" font-size="14.00">var.subnets</text>
</g>
<!-- [root] aws_subnet.public_subnet (expand)&#45;&gt;[root] var.subnets -->
<g id="edge6" class="edge">
<title>[root] aws_subnet.public_subnet (expand)&#45;&gt;[root] var.subnets</title>
<path fill="none" stroke="black" d="M247.58,-215.7C250.88,-207.98 254.86,-198.71 258.54,-190.11"/>
<polygon fill="black" stroke="black" points="262.11,-191.67 262.83,-181.1 255.67,-188.92 262.11,-191.67"/>
</g>
<!-- [root] provider[&quot;registry.terraform.io/hashicorp/aws&quot;] -->
<g id="node6" class="node">
<title>[root] provider[&quot;registry.terraform.io/hashicorp/aws&quot;]</title>
<polygon fill="none" stroke="black" points="397.16,-108 132.73,-90 397.16,-72 661.59,-90 397.16,-108"/>
<text text-anchor="middle" x="397.16" y="-84.95" font-family="Times,serif" font-size="14.00">provider[&quot;registry.terraform.io/hashicorp/aws&quot;]</text>
</g>
<!-- [root] aws_vpc.vpc&#45;lange&#45;virginia (expand)&#45;&gt;[root] provider[&quot;registry.terraform.io/hashicorp/aws&quot;] -->
<g id="edge7" class="edge">
<title>[root] aws_vpc.vpc&#45;lange&#45;virginia (expand)&#45;&gt;[root] provider[&quot;registry.terraform.io/hashicorp/aws&quot;]</title>
<path fill="none" stroke="black" d="M196.85,-143.52C238.76,-132.53 292.52,-118.43 333.79,-107.61"/>
<polygon fill="black" stroke="black" points="334.48,-110.79 343.27,-104.87 332.71,-104.02 334.48,-110.79"/>
</g>
<!-- [root] var.virgina_cidr -->
<g id="node10" class="node">
<title>[root] var.virgina_cidr</title>
<polygon fill="none" stroke="black" points="108.29,-108 12.04,-108 12.04,-72 114.29,-72 114.29,-102 108.29,-108"/>
<polyline fill="none" stroke="black" points="108.29,-108 108.29,-102"/>
<polyline fill="none" stroke="black" points="114.29,-102 108.29,-102"/>
<text text-anchor="middle" x="63.16" y="-84.95" font-family="Times,serif" font-size="14.00">var.virgina_cidr</text>
</g>
<!-- [root] aws_vpc.vpc&#45;lange&#45;virginia (expand)&#45;&gt;[root] var.virgina_cidr -->
<g id="edge8" class="edge">
<title>[root] aws_vpc.vpc&#45;lange&#45;virginia (expand)&#45;&gt;[root] var.virgina_cidr</title>
<path fill="none" stroke="black" d="M113.6,-143.7C105.57,-135.3 95.77,-125.07 86.96,-115.86"/>
<polygon fill="black" stroke="black" points="89.98,-113.91 80.53,-109.1 84.92,-118.75 89.98,-113.91"/>
</g>
<!-- [root] data.aws_key_pair.key (expand)&#45;&gt;[root] provider[&quot;registry.terraform.io/hashicorp/aws&quot;] -->
<g id="edge9" class="edge">
<title>[root] data.aws_key_pair.key (expand)&#45;&gt;[root] provider[&quot;registry.terraform.io/hashicorp/aws&quot;]</title>
<path fill="none" stroke="black" d="M397.16,-143.7C397.16,-136.24 397.16,-127.32 397.16,-118.97"/>
<polygon fill="black" stroke="black" points="400.66,-119.1 397.16,-109.1 393.66,-119.1 400.66,-119.1"/>
</g>
<!-- [root] var.tags -->
<g id="node9" class="node">
<title>[root] var.tags</title>
<polygon fill="none" stroke="black" points="420.16,-36 368.16,-36 368.16,0 426.16,0 426.16,-30 420.16,-36"/>
<polyline fill="none" stroke="black" points="420.16,-36 420.16,-30"/>
<polyline fill="none" stroke="black" points="426.16,-30 420.16,-30"/>
<text text-anchor="middle" x="397.16" y="-12.95" font-family="Times,serif" font-size="14.00">var.tags</text>
</g>
<!-- [root] provider[&quot;registry.terraform.io/hashicorp/aws&quot;]&#45;&gt;[root] var.tags -->
<g id="edge13" class="edge">
<title>[root] provider[&quot;registry.terraform.io/hashicorp/aws&quot;]&#45;&gt;[root] var.tags</title>
<path fill="none" stroke="black" d="M397.16,-71.7C397.16,-64.24 397.16,-55.32 397.16,-46.97"/>
<polygon fill="black" stroke="black" points="400.66,-47.1 397.16,-37.1 393.66,-47.1 400.66,-47.1"/>
</g>
<!-- [root] output.ec2_public_ip (expand) -->
<g id="node11" class="node">
<title>[root] output.ec2_public_ip (expand)</title>
<ellipse fill="none" stroke="black" cx="642.16" cy="-378" rx="148.08" ry="18"/>
<text text-anchor="middle" x="642.16" y="-372.95" font-family="Times,serif" font-size="14.00">[root] output.ec2_public_ip (expand)</text>
</g>
<!-- [root] output.ec2_public_ip (expand)&#45;&gt;[root] aws_instance.public_instance (expand) -->
<g id="edge10" class="edge">
<title>[root] output.ec2_public_ip (expand)&#45;&gt;[root] aws_instance.public_instance (expand)</title>
<path fill="none" stroke="black" d="M591.56,-360.68C561.16,-350.87 522.19,-338.3 489.6,-327.79"/>
<polygon fill="black" stroke="black" points="490.85,-324.19 480.26,-324.45 488.7,-330.85 490.85,-324.19"/>
</g>
<!-- [root] provider[&quot;registry.terraform.io/hashicorp/aws&quot;] (close) -->
<g id="node12" class="node">
<title>[root] provider[&quot;registry.terraform.io/hashicorp/aws&quot;] (close)</title>
<ellipse fill="none" stroke="black" cx="238.16" cy="-378" rx="238.16" ry="18"/>
<text text-anchor="middle" x="238.16" y="-372.95" font-family="Times,serif" font-size="14.00">[root] provider[&quot;registry.terraform.io/hashicorp/aws&quot;] (close)</text>
</g>
<!-- [root] provider[&quot;registry.terraform.io/hashicorp/aws&quot;] (close)&#45;&gt;[root] aws_instance.public_instance (expand) -->
<g id="edge11" class="edge">
<title>[root] provider[&quot;registry.terraform.io/hashicorp/aws&quot;] (close)&#45;&gt;[root] aws_instance.public_instance (expand)</title>
<path fill="none" stroke="black" d="M283.91,-359.88C309.41,-350.33 341.39,-338.36 368.47,-328.22"/>
<polygon fill="black" stroke="black" points="369.45,-331.22 377.59,-324.43 367,-324.66 369.45,-331.22"/>
</g>
<!-- [root] provider[&quot;registry.terraform.io/hashicorp/aws&quot;] (close)&#45;&gt;[root] aws_subnet.private_subnet (expand) -->
<g id="edge12" class="edge">
<title>[root] provider[&quot;registry.terraform.io/hashicorp/aws&quot;] (close)&#45;&gt;[root] aws_subnet.private_subnet (expand)</title>
<path fill="none" stroke="black" d="M238.16,-359.7C238.16,-352.24 238.16,-343.32 238.16,-334.97"/>
<polygon fill="black" stroke="black" points="241.66,-335.1 238.16,-325.1 234.66,-335.1 241.66,-335.1"/>
</g>
<!-- [root] root -->
<g id="node13" class="node">
<title>[root] root</title>
<ellipse fill="none" stroke="black" cx="440.16" cy="-450" rx="49.3" ry="18"/>
<text text-anchor="middle" x="440.16" y="-444.95" font-family="Times,serif" font-size="14.00">[root] root</text>
</g>
<!-- [root] root&#45;&gt;[root] output.ec2_public_ip (expand) -->
<g id="edge14" class="edge">
<title>[root] root&#45;&gt;[root] output.ec2_public_ip (expand)</title>
<path fill="none" stroke="black" d="M474.89,-436.97C504.97,-426.54 549.09,-411.25 584.47,-398.99"/>
<polygon fill="black" stroke="black" points="585.37,-402.04 593.67,-395.46 583.08,-395.42 585.37,-402.04"/>
</g>
<!-- [root] root&#45;&gt;[root] provider[&quot;registry.terraform.io/hashicorp/aws&quot;] (close) -->
<g id="edge15" class="edge">
<title>[root] root&#45;&gt;[root] provider[&quot;registry.terraform.io/hashicorp/aws&quot;] (close)</title>
<path fill="none" stroke="black" d="M405.44,-436.97C375.77,-426.68 332.43,-411.67 297.31,-399.5"/>
<polygon fill="black" stroke="black" points="298.76,-395.95 288.16,-395.98 296.47,-402.56 298.76,-395.95"/>
</g>
</g>
</svg>
